<?xml version="1.0" encoding="utf-8"?>
<!-- Generator: Adobe Illustrator 19.1.0, SVG Export Plug-In . SVG Version: 6.00 Build 0)  -->
<svg version="1.0" id="Layer_1" xmlns="http://www.w3.org/2000/svg" xmlns:xlink="http://www.w3.org/1999/xlink" x="0px" y="0px"
	 width="499.9px" height="500px" viewBox="0 0 499.9 500" style="enable-background:new 0 0 499.9 500;" xml:space="preserve">
<style type="text/css">
	.st0{fill:#249DED;}
</style>
<g id="lPnpOb.tif">
	<g>
		<path class="st0" d="M263,500c-8.7,0-17.3,0-26,0c-1.3-0.3-2.5-0.7-3.8-0.9c-12.3-1.8-24.8-2.8-37-5.3
			C96.7,473.3,16.6,387.3,3,286.7c-1-7.6-2-15.1-3-22.7c0-9.3,0-18.7,0-28c0.3-0.8,0.7-1.5,0.8-2.3c1.2-9.9,1.9-19.9,3.7-29.7
			C32.9,53.5,188.2-36.3,332.5,14.1c119,41.5,188.5,165.7,161.7,288.8C471.9,405,388.9,482.4,285.7,497.1
			C278.1,498.2,270.6,499,263,500z M250,428.4c32.2,0,62-7.6,90.5-23.2c102.1-55.8,124.1-190.3,45-275.4
			C325,64.7,223.5,52.6,148.2,101.6C84.8,142.9,53.8,219,71.5,290.4C91.7,372,164.6,428.4,250,428.4z"/>
		<path class="st0" d="M325.1,236.9c-21.9,0-43.5,0-65.5,0c0-20,0-39.9,0-60.2c1.3-0.1,2.6-0.4,3.8-0.4c14.7,0,29.3,0,44-0.1
			c2.6,0,4.2,0.4,5.4,3.1C319,193.9,325,221.3,325.1,236.9z"/>
		<path class="st0" d="M259.5,319.9c0-19.6,0-38.4,0-57.6c22,0,43.8,0,66.9,0c-2,11.9-3.7,23.5-6,35c-1.4,6.6-3.7,13.1-5.9,19.5
			c-0.4,1.2-2.1,2.9-3.2,2.9C294.1,320,277,319.9,259.5,319.9z"/>
		<path class="st0" d="M234.5,176.7c0,20,0,39.9,0,60.1c-20,0-39.7,0-60.4,0c0.7-6.6,0.9-13.2,2.2-19.6c2.6-12.5,5.7-24.9,9-37.3
			c0.4-1.5,2.8-3.5,4.2-3.5c14.3-0.3,28.6-0.1,42.9-0.1C233,176.3,233.7,176.6,234.5,176.7z"/>
		<path class="st0" d="M407.4,236.8c-18.8,0-37.7,0-55.9,0c-4-20.1-8-40-12.1-60.5c2.2,0,5.2,0,8.3,0c12.5,0,25-0.1,37.4,0.1
			c1.8,0,4.6,1,5.3,2.3c9.6,17.8,15.5,36.7,17.3,56.8C407.8,235.9,407.6,236.2,407.4,236.8z"/>
		<path class="st0" d="M159,176.3c-3.6,20.4-7.1,40.1-10.6,60.4c-17.8,0-36.7,0-56.4,0c0.8-5.3,1.4-10.5,2.3-15.6
			c2.7-14.5,7.7-28.2,14.6-41.2c0.8-1.5,2.7-3.4,4.1-3.4C128.5,176.2,144,176.3,159,176.3z"/>
		<path class="st0" d="M234.5,262.2c0,19.2,0,38.1,0,57.7c-4.2,0-8.3,0-12.4,0c-11.1,0-22.3,0.1-33.4-0.1c-1.5,0-3.9-1.3-4.3-2.6
			c-5.7-17.5-8.9-35.4-10-53.8c0-0.3,0.2-0.6,0.4-1.2C194.6,262.2,214.4,262.2,234.5,262.2z"/>
		<path class="st0" d="M408,262.4c-1.7,19.8-6.9,38.2-15.8,55.6c-0.5,0.9-2,1.9-3,1.9c-16.3,0.1-32.6,0.1-49.1,0.1
			c2.3-9.7,5-19,6.7-28.4c1.7-9.5,2.6-19.1,3.9-29.1C369.3,262.4,388.3,262.4,408,262.4z"/>
		<path class="st0" d="M92.3,262.2c19.2,0,38.1,0,56.2,0c3.2,19.4,6.3,38.3,9.6,57.7c-8.5,0-17.6,0-26.7,0c-6.5,0-13,0.1-19.5-0.1
			c-1.5-0.1-3.6-1-4.3-2.2C100.2,305.6,92.2,276.6,92.3,262.2z"/>
		<path class="st0" d="M286.1,399.7c18.2-15.3,31.8-32.8,42.1-52.8c0.6-1.1,2.2-2.3,3.4-2.3c14.1-0.2,28.2-0.1,42.5-0.1
			C364.2,364.9,319,393.3,286.1,399.7z"/>
		<path class="st0" d="M371.3,151.8c-14.1,0-27.5,0.1-41-0.1c-1.6,0-3.9-1.6-4.7-3.1c-9.8-17.8-22.1-33.6-37.3-47.1
			C306.8,100.1,358.3,131.1,371.3,151.8z"/>
		<path class="st0" d="M124.7,344.5c14.8,0,28.2,0,41.6,0.1c1,0,2.3,1.3,2.8,2.3c8.5,18.4,19.3,35.3,33.8,49.8
			C171.9,387.6,146.3,370.4,124.7,344.5z"/>
		<path class="st0" d="M127.9,151.8c21.3-24.4,46.4-40.3,76.5-48.6c-1.9,2-3.8,3.9-5.6,5.9c-10.8,11.7-19.8,24.6-26.8,38.9
			c-1.3,2.7-2.9,3.9-6,3.8C153.7,151.7,141.4,151.8,127.9,151.8z"/>
		<path class="st0" d="M259.6,388.6c0-15.3,0-29.4,0-43.8c13.8,0,27.3,0,41.6,0C290.5,362.7,277.2,377.1,259.6,388.6z"/>
		<path class="st0" d="M234.5,344.9c0,14.8,0,29.4,0,44.8c-17.6-11.2-29.2-26.6-38.9-44.8C209,344.9,221.6,344.9,234.5,344.9z"/>
		<path class="st0" d="M298.7,151.6c-13.3,0-25.9,0-38.9,0c0-13.5,0-26.9,0-41.2C275.8,121.4,288.3,135,298.7,151.6z"/>
		<path class="st0" d="M198,151.5c9.5-16.5,21.1-30,36.6-41.2c0,14.2,0,27.6,0,41.2C222.4,151.5,210.6,151.5,198,151.5z"/>
	</g>
</g>
</svg>
