<?xml version="1.0" encoding="utf-8"?>
<!-- Generator: Adobe Illustrator 19.1.0, SVG Export Plug-In . SVG Version: 6.00 Build 0)  -->
<svg version="1.0" id="Layer_1" xmlns="http://www.w3.org/2000/svg" xmlns:xlink="http://www.w3.org/1999/xlink" x="0px" y="0px"
	 width="94.4px" height="107.5px" viewBox="0 0 94.4 107.5" style="enable-background:new 0 0 94.4 107.5;" xml:space="preserve">
<style type="text/css">
	.st0{clip-path:url(#XMLID_3_);}
	.st1{fill:none;}
	.st2{fill:url(#SVGID_1_);}
	.st3{fill:url(#SVGID_2_);}
	.st4{fill:url(#SVGID_3_);}
	.st5{fill:url(#SVGID_4_);}
	.st6{fill:url(#SVGID_5_);}
	.st7{fill:url(#SVGID_6_);}
</style>
<g>
	<defs>
		<path id="XMLID_143_" d="M49.8,0.7c-1.6-0.9-3.5-0.9-5.1,0L2.5,25C1,25.9,0,27.6,0,29.4l0,48.7c0,1.8,1,3.5,2.5,4.4l42.1,24.3
			c1.6,0.9,3.5,0.9,5.1,0l42.1-24.3c1.6-0.9,2.5-2.6,2.5-4.4V29.4c0-1.8-1-3.5-2.5-4.4L49.8,0.7z"/>
	</defs>
	<linearGradient id="XMLID_2_" gradientUnits="userSpaceOnUse" x1="64.3488" y1="18.7889" x2="26.2839" y2="96.4412">
		<stop  offset="0" style="stop-color:#41873F"/>
		<stop  offset="0.3288" style="stop-color:#418B3D"/>
		<stop  offset="0.6352" style="stop-color:#419637"/>
		<stop  offset="0.9319" style="stop-color:#3FA92D"/>
		<stop  offset="1" style="stop-color:#3FAE2A"/>
	</linearGradient>
	<use xlink:href="#XMLID_143_"  style="overflow:visible;fill-rule:evenodd;clip-rule:evenodd;fill:url(#XMLID_2_);"/>
	<clipPath id="XMLID_3_">
		<use xlink:href="#XMLID_143_"  style="overflow:visible;"/>
	</clipPath>
	<g class="st0">
		<path class="st1" d="M44.6,0.7L2.4,25c-1.6,0.9-2.7,2.6-2.7,4.4v48.7c0,1.2,0.5,2.3,1.3,3.2L48.4,0.2C47.1-0.2,45.7,0,44.6,0.7z"
			/>
		<path class="st1" d="M48.6,107.3c0.4-0.1,0.8-0.3,1.2-0.5L92,82.5c1.6-0.9,2.6-2.6,2.6-4.4V29.4c0-1.3-0.6-2.6-1.5-3.5L48.6,107.3
			z"/>
		<linearGradient id="SVGID_1_" gradientUnits="userSpaceOnUse" x1="40.8048" y1="59.4277" x2="147.612" y2="-19.4872">
			<stop  offset="0.1376" style="stop-color:#41873F"/>
			<stop  offset="0.4032" style="stop-color:#54A044"/>
			<stop  offset="0.7136" style="stop-color:#66B848"/>
			<stop  offset="0.9081" style="stop-color:#6CC04A"/>
		</linearGradient>
		<path class="st2" d="M92,25L49.7,0.7c-0.4-0.2-0.9-0.4-1.3-0.5L1,81.3c0.4,0.5,0.9,0.9,1.4,1.2l42.3,24.3c1.2,0.7,2.6,0.9,3.9,0.5
			l44.5-81.4C92.8,25.5,92.4,25.2,92,25z"/>
	</g>
	<g class="st0">
		<path class="st1" d="M94.6,78.1V29.4c0-1.8-1.1-3.5-2.7-4.4L49.7,0.7c-0.5-0.3-1-0.5-1.6-0.6l46.3,79.1
			C94.6,78.9,94.6,78.5,94.6,78.1z"/>
		<path class="st1" d="M2.4,25c-1.6,0.9-2.7,2.6-2.7,4.4v48.7c0,1.8,1.2,3.5,2.7,4.4l42.3,24.3c1,0.6,2.1,0.8,3.3,0.6L2.6,24.8
			L2.4,25z"/>
		<linearGradient id="SVGID_2_" gradientUnits="userSpaceOnUse" x1="-1.4906" y1="-8.0914" x2="95.9264" y2="-8.0914">
			<stop  offset="9.191646e-02" style="stop-color:#6CC04A"/>
			<stop  offset="0.2864" style="stop-color:#66B848"/>
			<stop  offset="0.5968" style="stop-color:#54A044"/>
			<stop  offset="0.8624" style="stop-color:#41873F"/>
		</linearGradient>
		<polygon class="st3" points="43.3,-8.3 42.7,-7.9 43.5,-7.9 		"/>
		<linearGradient id="SVGID_3_" gradientUnits="userSpaceOnUse" x1="-1.4906" y1="53.7258" x2="95.9264" y2="53.7258">
			<stop  offset="9.191646e-02" style="stop-color:#6CC04A"/>
			<stop  offset="0.2864" style="stop-color:#66B848"/>
			<stop  offset="0.5968" style="stop-color:#54A044"/>
			<stop  offset="0.8624" style="stop-color:#41873F"/>
		</linearGradient>
		<path class="st4" d="M92,82.5c1.2-0.7,2.1-1.9,2.5-3.2L48.2,0.1c-1.2-0.2-2.5-0.1-3.6,0.6l-42,24.2L48,107.4
			c0.6-0.1,1.3-0.3,1.9-0.6L92,82.5z"/>
		<linearGradient id="SVGID_4_" gradientUnits="userSpaceOnUse" x1="-1.4906" y1="81.5364" x2="95.9264" y2="81.5364">
			<stop  offset="9.191646e-02" style="stop-color:#6CC04A"/>
			<stop  offset="0.2864" style="stop-color:#66B848"/>
			<stop  offset="0.5968" style="stop-color:#54A044"/>
			<stop  offset="0.8624" style="stop-color:#41873F"/>
		</linearGradient>
		<polygon class="st5" points="95.9,81.7 95.6,81.2 95.6,81.9 		"/>
		<linearGradient id="SVGID_5_" gradientUnits="userSpaceOnUse" x1="-1.4906" y1="94.1061" x2="95.9264" y2="94.1061">
			<stop  offset="9.191646e-02" style="stop-color:#6CC04A"/>
			<stop  offset="0.2864" style="stop-color:#66B848"/>
			<stop  offset="0.5968" style="stop-color:#54A044"/>
			<stop  offset="0.8624" style="stop-color:#41873F"/>
		</linearGradient>
		<path class="st6" d="M92,82.5l-42.2,24.3c-0.6,0.3-1.2,0.5-1.9,0.6l0.8,1.5l46.8-27.1v-0.6l-1.2-2C94.1,80.6,93.2,81.8,92,82.5z"
			/>
		<linearGradient id="SVGID_6_" gradientUnits="userSpaceOnUse" x1="110.1189" y1="16.4867" x2="50.0383" y2="139.0511">
			<stop  offset="0" style="stop-color:#41873F"/>
			<stop  offset="0.3288" style="stop-color:#418B3D"/>
			<stop  offset="0.6352" style="stop-color:#419637"/>
			<stop  offset="0.9319" style="stop-color:#3FA92D"/>
			<stop  offset="1" style="stop-color:#3FAE2A"/>
		</linearGradient>
		<path class="st7" d="M92,82.5l-42.2,24.3c-0.6,0.3-1.2,0.5-1.9,0.6l0.8,1.5l46.8-27.1v-0.6l-1.2-2C94.1,80.6,93.2,81.8,92,82.5z"
			/>
	</g>
</g>
<g>
</g>
<g>
</g>
<g>
</g>
<g>
</g>
<g>
</g>
<g>
</g>
<g>
</g>
<g>
</g>
<g>
</g>
<g>
</g>
<g>
</g>
<g>
</g>
<g>
</g>
<g>
</g>
<g>
</g>
</svg>
